#!OML:ASF F:\VICON\USERDATA\INSTALL\rory3\rory3.ASF
:FULLY-SPECIFIED
:DEGREES
910
root -0.0618548 18.2656 1.53874 -359.786 60.1679 1.19637
lowerback 10.0612 1.62732 -3.0551
upperback 0.591358 1.82357 -0.216275
thorax -5.11574 0.974659 1.23121
lowerneck -17.8751 -8.35656 -14.1374
upperneck 28.2724 -10.9974 11.6415
head 14.1687 -4.73911 5.125
rclavicle 1.25359e-014 4.96962e-015
rhumerus -32.1525 -5.83664 -87.5595
rradius 37.2103
rwrist 4.25385
rhand -13.7704 9.11613
rfingers 7.12502
rthumb 12.3505 -20.4991
lclavicle 1.25359e-014 4.96962e-015
lhumerus -39.6186 2.91926 84.2169
lradius 33.3429
lwrist -5.01086
lhand -17.8879 25.6609
lfingers 7.12502
lthumb 8.37855 55.4747
rfemur -10.535 -21.2646 16.4356
rtibia 30.1259
rfoot -16.0405 -26.6348
rtoes 21.2207
lfemur 2.74559 5.69599 -25.4075
ltibia 6.55918
lfoot -5.03304 16.516
ltoes 18.7037
911
root -0.0706357 18.2676 1.54689 -359.808 59.3636 1.16389
lowerback 10.0162 1.5884 -3.12906
upperback 0.588243 1.76435 -0.22398
thorax -5.09313 0.94673 1.27447
lowerneck -17.8835 -8.38462 -14.1397
upperneck 28.3194 -11.0265 11.5789
head 14.1913 -4.76138 5.09432
rclavicle -2.89356e-014 1.39149e-015
rhumerus -32.1706 -5.77681 -87.6029
rradius 37.1993
rwrist 4.23845
rhand -14.0902 9.05646
rfingers 7.12502
rthumb 12.0422 -20.5771
lclavicle -2.89356e-014 1.39149e-015
lhumerus -39.568 3.10764 84.0526
lradius 33.2076
lwrist -5.39404
lhand -17.7363 26.756
lfingers 7.12502
lthumb 8.52485 56.5639
rfemur -10.5887 -21.4694 16.5024
rtibia 30.4657
rfoot -16.3421 -26.4893
rtoes 22.6686
lfemur 2.81783 5.84347 -25.3973
ltibia 6.4421
lfoot -5.16669 17.1027
ltoes 19.1441
912
root -0.0786684 18.2684 1.55368 -359.798 58.557 1.13759
lowerback 9.98379 1.55776 -3.19139
upperback 0.546387 1.71574 -0.234503
thorax -5.11815 0.924528 1.30573
lowerneck -17.8688 -8.41666 -14.1218
upperneck 28.3633 -11.0764 11.5337
head 14.211 -4.78878 5.06372
rclavicle 8.24335e-014 -8.34896e-015
rhumerus -32.348 -5.74404 -87.6221
rradius 37.3
rwrist 4.31542
rhand -14.9213 8.95784
rfingers 7.12502
rthumb 11.2407 -20.721
lclavicle 8.24335e-014 -8.34896e-015
lhumerus -39.5487 3.33231 83.8309
lradius 32.9732
lwrist -5.75925
lhand -17.6398 26.4718
lfingers 7.12502
lthumb 8.61791 56.2759
rfemur -10.6923 -21.6942 16.5682
rtibia 30.8069
rfoot -16.3211 -26.4167
rtoes 23.7658
lfemur 2.85179 5.99068 -25.3806
ltibia 6.30809
lfoot -5.03238 17.7587
ltoes 18.4687
913
root -0.0876621 18.2721 1.55994 -359.861 57.7459 1.01826
lowerback 9.92764 1.5092 -3.2053
upperback 0.513119 1.6517 -0.20867
thorax -5.11969 0.893634 1.35066
lowerneck -17.8325 -8.41587 -14.1798
upperneck 28.4146 -11.0861 11.5811
head 14.2353 -4.79604 5.09462
rclavicle -6.27414e-014 1.98785e-014
rhumerus -32.5043 -5.61865 -87.613
rradius 37.4338
rwrist 4.34074
rhand -15.513 8.95536
rfingers 7.12502
rthumb 10.6699 -20.7537
lclavicle -6.27414e-014 1.98785e-014
lhumerus -39.5991 3.48747 83.6656
lradius 32.8135
lwrist -5.82737
lhand -17.6994 25.6335
lfingers 7.12502
lthumb 8.56039 55.44
rfemur -10.7969 -21.8753 16.7125
rtibia 31.1275
rfoot -16.3306 -26.5115
rtoes 24.644
lfemur 2.91439 6.14185 -25.2924
ltibia 6.11405
lfoot -4.91935 18.3192
ltoes 18.2406
914
root -0.0982068 18.2762 1.56311 -359.846 56.9369 0.990152
lowerback 9.92178 1.45277 -3.22195
upperback 0.463099 1.57433 -0.187737
thorax -5.16619 0.856901 1.39251
lowerneck -17.8031 -8.4126 -14.3663
upperneck 28.4273 -11.0786 11.7249
head 14.2586 -4.79836 5.19003
rclavicle 5.44794e-014 8.74653e-015
rhumerus -32.5972 -5.30439 -87.5714
rradius 37.5365
rwrist 4.16058
rhand -15.2881 8.84935
rfingers 7.12502
rthumb 10.8868 -20.8484
lclavicle 5.44794e-014 8.74653e-015
lhumerus -39.6871 3.51312 83.6164
lradius 32.7649
lwrist -5.70213
lhand -18.0168 25.3577
lfingers 7.12502
lthumb 8.25409 55.1765
rfemur -10.8747 -22.0824 16.7997
rtibia 31.3818
rfoot -16.4354 -26.5336
rtoes 25.1909
lfemur 2.89366 6.29079 -25.2758
ltibia 6.05651
lfoot -4.96326 18.9082
ltoes 18.2241
915
root -0.11012 18.277 1.56805 -359.753 56.163 1.09975
lowerback 9.97077 1.42065 -3.31494
upperback 0.446001 1.51844 -0.190637
thorax -5.21129 0.832175 1.44859
lowerneck -17.8508 -8.48346 -14.5627
upperneck 28.3712 -11.1627 11.8645
head 14.2854 -4.84008 5.26158
rclavicle -4.95968e-014 9.93923e-015
rhumerus -32.5864 -5.10278 -87.4861
rradius 37.534
rwrist 3.90553
rhand -15.0733 8.76747
rfingers 7.12502
rthumb 11.0941 -20.9193
lclavicle -4.95968e-014 9.93923e-015
lhumerus -39.6922 3.5418 83.5049
lradius 32.6801
lwrist -5.54007
lhand -18.165 24.6946
lfingers 7.12502
lthumb 8.11104 54.5189
rfemur -10.9244 -22.1984 16.7689
rtibia 31.5788
rfoot -16.2821 -26.6044
rtoes 24.333
lfemur 2.84553 6.40807 -25.3487
ltibia 6.1745
lfoot -5.15276 19.4776
ltoes 18.4323
916
root -0.123467 18.2757 1.57879 -359.727 55.3564 1.11163
lowerback 9.94127 1.41342 -3.37512
upperback 0.45411 1.5014 -0.226343
thorax -5.18599 0.824354 1.44835
lowerneck -17.842 -8.53706 -14.5474
upperneck 28.3292 -11.2628 11.8985
head 14.2843 -4.87984 5.25057
rclavicle -6.20208e-014 -7.15625e-015
rhumerus -32.5031 -5.17533 -87.4451
rradius 37.4631
rwrist 3.64745
rhand -14.8521 8.63611
rfingers 7.12502
rthumb 11.3074 -21.0391
lclavicle -6.20208e-014 -7.15625e-015
lhumerus -39.6986 3.51962 83.2725
lradius 32.6176
lwrist -5.17012
lhand -18.235 23.5903
lfingers 7.12502
lthumb 8.04352 53.4173
rfemur -10.9618 -22.2684 16.8492
rtibia 31.7248
rfoot -16.0792 -26.7631
rtoes 23.4737
lfemur 2.744 6.55606 -25.3441
ltibia 6.38645
lfoot -5.46061 20.0437
ltoes 18.9824
917
root -0.135511 18.2728 1.59097 -359.815 54.5524 1.03601
lowerback 9.92261 1.39879 -3.38665
upperback 0.454717 1.48156 -0.2183
thorax -5.17438 0.814664 1.46653
lowerneck -17.6757 -8.54767 -14.5837
upperneck 28.2978 -11.2862 11.8849
head 14.2398 -4.90316 5.2477
rclavicle -3.52594e-014 -9.93923e-016
rhumerus -32.517 -5.30268 -87.333
rradius 37.3864
rwrist 3.65856
rhand -14.6444 8.62604
rfingers 7.12502
rthumb 11.5077 -21.0381
lclavicle -3.52594e-014 -9.93923e-016
lhumerus -39.7764 3.20947 83.3394
lradius 32.7343
lwrist -4.4099
lhand -18.4971 23.7753
lfingers 7.12502
lthumb 7.79052 53.6118
rfemur -10.8675 -22.2903 16.9764
rtibia 31.8374
rfoot -16.1412 -26.8084
rtoes 24.2747
lfemur 2.69933 6.70551 -25.259
ltibia 6.53676
lfoot -5.61045 20.6339
ltoes 19.0265
918
root -0.143991 18.2717 1.60358 -359.889 53.721 0.943659
lowerback 9.82228 1.37907 -3.41469
upperback 0.457558 1.45869 -0.163089
thorax -5.11613 0.80368 1.54538
lowerneck -17.6013 -8.56886 -14.734
upperneck 28.2966 -11.2851 11.888
head 14.2348 -4.92346 5.27582
rclavicle -5.82688e-014 4.57205e-015
rhumerus -32.6745 -5.37011 -87.1692
rradius 37.4037
rwrist 4.07475
rhand -14.6689 9.079
rfingers 7.12502
rthumb 11.4841 -20.5864
lclavicle -5.82688e-014 4.57205e-015
lhumerus -39.7192 3.04775 83.484
lradius 32.7703
lwrist -4.31714
lhand -18.8977 25.5932
lfingers 7.12502
lthumb 7.40385 55.4436
rfemur -10.8024 -22.3437 17.1053
rtibia 31.9457
rfoot -16.0654 -26.9398
rtoes 24.0964
lfemur 2.66118 6.88003 -25.1577
ltibia 6.66324
lfoot -5.87698 21.185
ltoes 19.6031
919
root -0.153479 18.2721 1.61599 -359.702 52.9012 1.10195
lowerback 9.65363 1.37251 -3.59665
upperback 0.471565 1.43676 -0.166369
thorax -5.01028 0.795307 1.65095
lowerneck -17.6605 -8.61318 -14.8185
upperneck 28.3078 -11.3242 11.8924
head 14.2666 -4.94919 5.28265
rclavicle -1.64991e-014 -2.38542e-015
rhumerus -32.7367 -5.25177 -87.1063
rradius 37.4228
rwrist 4.19258
rhand -14.9978 9.21208
rfingers 7.12502
rthumb 11.1669 -20.4708
lclavicle -1.64991e-014 -2.38542e-015
lhumerus -39.5258 3.33373 83.3425
lradius 32.5861
lwrist -5.1157
lhand -17.7722 26.0422
lfingers 7.12502
lthumb 8.49015 55.8516
rfemur -10.8778 -22.5014 17.1107
rtibia 32.0814
rfoot -15.6033 -27.1271
rtoes 22.1518
lfemur 2.5988 7.03755 -25.235
ltibia 6.72019
lfoot -6.19727 21.7165
ltoes 20.4535
